<svg width="1080" height="1080" viewBox="0 0 1080 1080" fill="none" xmlns="http://www.w3.org/2000/svg">
<path fill-rule="evenodd" clip-rule="evenodd" d="M895.073 664C843.835 810.734 704.211 916 540 916C332.341 916 164 747.659 164 540C164 332.341 332.341 164 540 164C704.211 164 843.835 269.266 895.073 416H1024.5C969.347 199.839 773.34 40 540 40C263.858 40 40 263.858 40 540C40 816.142 263.858 1040 540 1040C816.142 1040 1040 816.142 1040 540H995H916H665C665 470.964 609.036 415 540 415C470.964 415 415 470.964 415 540C415 609.036 470.964 665 540 665C545.382 665 550.684 664.66 555.887 664H895.073Z" fill="white"/>
</svg>
